<svg width="48" height="48" viewBox="0 0 48 48" fill="none" xmlns="http://www.w3.org/2000/svg">
<path d="M0 24C0 10.7452 10.7452 0 24 0C37.2548 0 48 10.7452 48 24C48 37.2548 37.2548 48 24 48C10.7452 48 0 37.2548 0 24Z" fill="#F6F6F6"/>
<path fill-rule="evenodd" clip-rule="evenodd" d="M28.6113 10C28.8313 11.4942 28.2231 12.958 27.4208 13.9937C26.5624 15.1045 25.0829 15.9637 23.6495 15.9189C23.3878 14.4883 24.0578 13.0144 24.873 12.0236C25.7673 10.9301 27.3 10.0911 28.6113 10ZM32.9175 31.0314C33.6565 29.8988 33.9326 29.3274 34.5062 28.0488C30.3338 26.462 29.6652 20.5301 33.7945 18.2534C32.535 16.6739 30.7651 15.7583 29.0944 15.7583C27.8906 15.7583 27.0658 16.0724 26.3159 16.358C25.691 16.596 25.1182 16.8142 24.4216 16.8142C23.6687 16.8142 23.002 16.5752 22.3039 16.3249C21.5368 16.0498 20.7318 15.7612 19.7329 15.7612C17.858 15.7612 15.8624 16.9068 14.5971 18.8653C12.8186 21.6236 13.122 26.8092 16.0062 31.2266C17.0371 32.8076 18.4145 34.5838 20.216 34.5998C20.9635 34.6072 21.461 34.3841 21.9993 34.1426C22.6154 33.8663 23.2851 33.5659 24.4446 33.5598C25.6109 33.5528 26.27 33.8568 26.8779 34.1372C27.4024 34.3791 27.8888 34.6035 28.63 34.5954C30.433 34.581 31.8866 32.6123 32.9175 31.0314Z" fill="#0B0B0A"/>
</svg>
