<svg width="15" height="15" viewBox="0 0 15 15" fill="none" xmlns="http://www.w3.org/2000/svg">
<path fill-rule="evenodd" clip-rule="evenodd" d="M2.70699 0.29298C2.51839 0.110822 2.26579 0.0100274 2.00359 0.0123059C1.74139 0.0145843 1.49058 0.119753 1.30517 0.305162C1.11976 0.49057 1.01459 0.741382 1.01232 1.00358C1.01004 1.26578 1.11083 1.51838 1.29299 1.70698L6.58599 6.99998L1.29299 12.293C1.19748 12.3852 1.1213 12.4956 1.06889 12.6176C1.01648 12.7396 0.988893 12.8708 0.987739 13.0036C0.986585 13.1364 1.01189 13.268 1.06217 13.3909C1.11245 13.5138 1.1867 13.6255 1.28059 13.7194C1.37449 13.8133 1.48614 13.8875 1.60904 13.9378C1.73193 13.9881 1.86361 14.0134 1.99639 14.0122C2.12917 14.0111 2.26039 13.9835 2.38239 13.9311C2.5044 13.8787 2.61474 13.8025 2.70699 13.707L7.99999 8.41398L13.293 13.707C13.4816 13.8891 13.7342 13.9899 13.9964 13.9877C14.2586 13.9854 14.5094 13.8802 14.6948 13.6948C14.8802 13.5094 14.9854 13.2586 14.9877 12.9964C14.9899 12.7342 14.8891 12.4816 14.707 12.293L9.41399 6.99998L14.707 1.70698C14.8891 1.51838 14.9899 1.26578 14.9877 1.00358C14.9854 0.741382 14.8802 0.49057 14.6948 0.305162C14.5094 0.119753 14.2586 0.0145843 13.9964 0.0123059C13.7342 0.0100274 13.4816 0.110822 13.293 0.29298L7.99999 5.58598L2.70699 0.29298Z" fill="#1A0710" fill-opacity="0.85"/>
</svg>
