<svg width="10" height="16" viewBox="0 0 10 16" fill="none" xmlns="http://www.w3.org/2000/svg">
<path fill-rule="evenodd" clip-rule="evenodd" d="M6 0.960002C6 0.429808 5.55228 0 5 0C4.44772 0 4 0.429808 4 0.960002V2.55997H3.33333C2.44928 2.55997 1.60143 2.89711 0.976311 3.49723C0.35119 4.09735 0 4.91128 0 5.75998C0 6.60867 0.35119 7.42261 0.976311 8.02272C1.60143 8.62284 2.44928 8.95998 3.33333 8.95998H4V11.52H1C0.447715 11.52 0 11.9498 0 12.48C0 13.0102 0.447715 13.44 1 13.44H4V15.04C4 15.5702 4.44772 16 5 16C5.55228 16 6 15.5702 6 15.04V13.44H6.66667C7.55072 13.44 8.39857 13.1029 9.02369 12.5027C9.64881 11.9026 10 11.0887 10 10.24C10 9.39129 9.64881 8.57736 9.02369 7.97724C8.39857 7.37712 7.55072 7.03998 6.66667 7.03998H6V4.47997H8.33333C8.88562 4.47997 9.33333 4.05016 9.33333 3.51997C9.33333 2.98978 8.88562 2.55997 8.33333 2.55997H6V0.960002ZM4 4.47997H3.33333C2.97971 4.47997 2.64057 4.61483 2.39052 4.85488C2.14048 5.09492 2 5.4205 2 5.75998C2 6.09945 2.14048 6.42503 2.39052 6.66507C2.64057 6.90512 2.97971 7.03998 3.33333 7.03998H4V4.47997ZM6 8.95998V11.52H6.66667C7.02029 11.52 7.35943 11.3851 7.60948 11.1451C7.85952 10.905 8 10.5795 8 10.24C8 9.90051 7.85952 9.57494 7.60948 9.33489C7.35943 9.09484 7.02029 8.95998 6.66667 8.95998H6Z" fill="#1A0710" fill-opacity="0.65"/>
</svg>
