<svg width="16" height="16" viewBox="0 0 16 16" fill="none" xmlns="http://www.w3.org/2000/svg">
<path fill-rule="evenodd" clip-rule="evenodd" d="M2.34315 2.34315C3.84344 0.842855 5.87827 0 8 0C10.1217 0 12.1566 0.842855 13.6569 2.34315C15.1571 3.84344 16 5.87827 16 8C16 10.1217 15.1571 12.1566 13.6569 13.6569C12.1566 15.1571 10.1217 16 8 16C5.87827 16 3.84344 15.1571 2.34315 13.6569C0.842855 12.1566 0 10.1217 0 8C0 5.87827 0.842855 3.84344 2.34315 2.34315ZM8 14C9.5913 14 11.1174 13.3679 12.2426 12.2426C13.3679 11.1174 14 9.5913 14 8C14 6.4087 13.3679 4.88258 12.2426 3.75736C11.1174 2.63214 9.5913 2 8 2C6.4087 2 4.88258 2.63214 3.75736 3.75736C2.63214 4.88258 2 6.4087 2 8C2 9.5913 2.63214 11.1174 3.75736 12.2426C4.88258 13.3679 6.4087 14 8 14ZM7 5.333C7 4.78072 7.44772 4.333 8 4.333H8.007C8.55928 4.333 9.007 4.78072 9.007 5.333C9.007 5.88528 8.55928 6.333 8.007 6.333H8C7.44772 6.333 7 5.88528 7 5.333ZM8 7C8.55228 7 9 7.44772 9 8V10.667C9 11.2193 8.55228 11.667 8 11.667C7.44772 11.667 7 11.2193 7 10.667V8C7 7.44772 7.44772 7 8 7Z" fill="#1A0710" fill-opacity="0.65"/>
</svg>
