<svg width="16" height="16" viewBox="0 0 16 16" fill="none" xmlns="http://www.w3.org/2000/svg">
<g clip-path="url(#clip0_2841_182)">
<path fill-rule="evenodd" clip-rule="evenodd" d="M3 6.72704C3 5.48978 3.51388 4.29361 4.44564 3.40215C5.40572 2.49704 6.67673 1.9951 7.99626 2.00004V2.00004H8C9.34047 2.00004 10.6175 2.50851 11.5528 3.40066L11.5528 3.40067L11.5569 3.40452C12.0103 3.83222 12.3721 4.34766 12.6202 4.91952C12.868 5.49078 12.9972 6.10643 13 6.72912C12.9991 8.53627 11.754 10.3548 10.2902 11.8297C9.58152 12.5438 8.86907 13.1298 8.33237 13.5377C8.21153 13.6296 8.10003 13.7121 8 13.7847C7.89997 13.7121 7.78847 13.6296 7.66763 13.5377C7.13093 13.1298 6.41848 12.5438 5.70977 11.8297C4.24542 10.3543 3 8.53488 3 6.72704ZM15 6.72704H14L15 6.72304C14.9964 5.82855 14.811 4.94414 14.455 4.12354C14.0994 3.30383 13.581 2.56489 12.9312 1.95155C11.6152 0.697303 9.84181 0.000515139 8.00187 4.33082e-05C6.16895 -0.00633326 4.40358 0.691656 3.0706 1.94982L3.07058 1.94981L3.06614 1.95405C1.7493 3.21237 1 4.92728 1 6.72704C1 9.37421 2.75458 11.6913 4.29023 13.2386C5.08152 14.0359 5.86907 14.6828 6.45737 15.13C6.75237 15.3542 6.9994 15.5298 7.17461 15.6506C7.26227 15.711 7.3321 15.7579 7.38115 15.7903C7.40567 15.8065 7.42501 15.8191 7.4388 15.828L7.45527 15.8387L7.4603 15.8419L7.462 15.843L7.46264 15.8434C7.4629 15.8436 7.46314 15.8437 8 15L7.46314 15.8437C7.7907 16.0522 8.2093 16.0522 8.53686 15.8437L8 15C8.53686 15.8437 8.5371 15.8436 8.53736 15.8434L8.538 15.843L8.5397 15.8419L8.54473 15.8387L8.5612 15.828C8.57499 15.8191 8.59433 15.8065 8.61885 15.7903C8.6679 15.7579 8.73773 15.711 8.82539 15.6506C9.0006 15.5298 9.24763 15.3542 9.54263 15.13C10.1309 14.6828 10.9185 14.0359 11.7098 13.2386C13.2454 11.6913 15 9.37421 15 6.72704ZM8 4C7.20435 4 6.44129 4.31607 5.87868 4.87868C5.31607 5.44129 5 6.20435 5 7C5 7.79565 5.31607 8.55871 5.87868 9.12132C6.44129 9.68393 7.20435 10 8 10C8.79565 10 9.55871 9.68393 10.1213 9.12132C10.6839 8.55871 11 7.79565 11 7C11 6.20435 10.6839 5.44129 10.1213 4.87868C9.55871 4.31607 8.79565 4 8 4ZM8.70711 7.70711C8.51957 7.89464 8.26522 8 8 8C7.73478 8 7.48043 7.89464 7.29289 7.70711C7.10536 7.51957 7 7.26522 7 7C7 6.73478 7.10536 6.48043 7.29289 6.29289C7.48043 6.10536 7.73478 6 8 6C8.26522 6 8.51957 6.10536 8.70711 6.29289C8.89464 6.48043 9 6.73478 9 7C9 7.26522 8.89464 7.51957 8.70711 7.70711Z" fill="#5932EA"/>
</g>
<defs>
<clipPath id="clip0_2841_182">
<rect width="16" height="16" fill="white"/>
</clipPath>
</defs>
</svg>
