<svg width="271" height="24" viewBox="0 0 271 24" fill="none" xmlns="http://www.w3.org/2000/svg">
<rect x="38.5" y="0.5" width="24" height="23" rx="3.5" fill="#5932EA"/>
<rect x="38.5" y="0.5" width="24" height="23" rx="3.5" stroke="#5932EA"/>
<path d="M48.54 8.5V7.252H51.036V16H49.656V8.5H48.54Z" fill="white"/>
<rect x="75.5" y="0.5" width="24" height="23" rx="3.5" fill="#F5F5F5"/>
<rect x="75.5" y="0.5" width="24" height="23" rx="3.5" stroke="#EEEEEE"/>
<path d="M85.476 14.14C86.244 13.476 86.848 12.932 87.288 12.508C87.736 12.076 88.108 11.628 88.404 11.164C88.7 10.7 88.848 10.236 88.848 9.772C88.848 9.292 88.732 8.916 88.5 8.644C88.276 8.372 87.92 8.236 87.432 8.236C86.96 8.236 86.592 8.388 86.328 8.692C86.072 8.988 85.936 9.388 85.92 9.892H84.6C84.624 8.98 84.896 8.284 85.416 7.804C85.944 7.316 86.612 7.072 87.42 7.072C88.292 7.072 88.972 7.312 89.46 7.792C89.956 8.272 90.204 8.912 90.204 9.712C90.204 10.288 90.056 10.844 89.76 11.38C89.472 11.908 89.124 12.384 88.716 12.808C88.316 13.224 87.804 13.708 87.18 14.26L86.64 14.74H90.444V15.88H84.612V14.884L85.476 14.14Z" fill="#404B52"/>
<rect x="148.5" y="0.5" width="25" height="23" rx="3.5" fill="#F5F5F5"/>
<rect x="148.5" y="0.5" width="25" height="23" rx="3.5" stroke="#EEEEEE"/>
<path d="M157.552 14.176V13.144L161.584 7.36H163.24V12.988H164.356V14.176H163.24V16H161.896V14.176H157.552ZM161.956 8.752L159.124 12.988H161.956V8.752Z" fill="#404B52"/>
<rect x="207.5" y="0.5" width="25" height="23" rx="3.5" fill="#F5F5F5"/>
<rect x="207.5" y="0.5" width="25" height="23" rx="3.5" stroke="#EEEEEE"/>
<path d="M212.552 14.176V13.144L216.584 7.36H218.24V12.988H219.356V14.176H218.24V16H216.896V14.176H212.552ZM216.956 8.752L214.124 12.988H216.956V8.752ZM220.37 11.512C220.37 10.128 220.602 9.048 221.066 8.272C221.538 7.488 222.346 7.096 223.49 7.096C224.634 7.096 225.438 7.488 225.902 8.272C226.374 9.048 226.61 10.128 226.61 11.512C226.61 12.912 226.374 14.008 225.902 14.8C225.438 15.584 224.634 15.976 223.49 15.976C222.346 15.976 221.538 15.584 221.066 14.8C220.602 14.008 220.37 12.912 220.37 11.512ZM225.266 11.512C225.266 10.864 225.222 10.316 225.134 9.868C225.054 9.42 224.886 9.056 224.63 8.776C224.374 8.488 223.994 8.344 223.49 8.344C222.986 8.344 222.606 8.488 222.35 8.776C222.094 9.056 221.922 9.42 221.834 9.868C221.754 10.316 221.714 10.864 221.714 11.512C221.714 12.184 221.754 12.748 221.834 13.204C221.914 13.66 222.082 14.028 222.338 14.308C222.602 14.588 222.986 14.728 223.49 14.728C223.994 14.728 224.374 14.588 224.63 14.308C224.894 14.028 225.066 13.66 225.146 13.204C225.226 12.748 225.266 12.184 225.266 11.512Z" fill="#404B52"/>
<rect x="245.5" y="0.5" width="25" height="23" rx="3.5" fill="#F5F5F5"/>
<rect x="245.5" y="0.5" width="25" height="23" rx="3.5" stroke="#EEEEEE"/>
<path d="M255.344 8.944H257.072L259.832 11.668L257.072 14.392H255.344L258.116 11.668L255.344 8.944Z" fill="#404B52"/>
<rect x="0.5" y="0.5" width="25" height="23" rx="3.5" fill="#F5F5F5"/>
<rect x="0.5" y="0.5" width="25" height="23" rx="3.5" stroke="#EEEEEE"/>
<path d="M12.936 14.392L10.176 11.668L12.936 8.944H14.664L11.892 11.668L14.664 14.392H12.936Z" fill="#404B52"/>
<path d="M187.452 18.084C187.204 18.084 186.996 18 186.828 17.832C186.66 17.664 186.576 17.456 186.576 17.208C186.576 16.96 186.66 16.752 186.828 16.584C186.996 16.416 187.204 16.332 187.452 16.332C187.692 16.332 187.896 16.416 188.064 16.584C188.232 16.752 188.316 16.96 188.316 17.208C188.316 17.456 188.232 17.664 188.064 17.832C187.896 18 187.692 18.084 187.452 18.084ZM190.227 18.084C189.979 18.084 189.771 18 189.603 17.832C189.435 17.664 189.351 17.456 189.351 17.208C189.351 16.96 189.435 16.752 189.603 16.584C189.771 16.416 189.979 16.332 190.227 16.332C190.467 16.332 190.671 16.416 190.839 16.584C191.007 16.752 191.091 16.96 191.091 17.208C191.091 17.456 191.007 17.664 190.839 17.832C190.671 18 190.467 18.084 190.227 18.084ZM193.001 18.084C192.753 18.084 192.545 18 192.377 17.832C192.209 17.664 192.125 17.456 192.125 17.208C192.125 16.96 192.209 16.752 192.377 16.584C192.545 16.416 192.753 16.332 193.001 16.332C193.241 16.332 193.445 16.416 193.613 16.584C193.781 16.752 193.865 16.96 193.865 17.208C193.865 17.456 193.781 17.664 193.613 17.832C193.445 18 193.241 18.084 193.001 18.084Z" fill="black"/>
<rect x="112.5" y="0.5" width="23" height="23" rx="3.5" fill="#F5F5F5"/>
<rect x="112.5" y="0.5" width="23" height="23" rx="3.5" stroke="#EEEEEE"/>
<path d="M120.696 9.412C120.744 8.668 121.028 8.088 121.548 7.672C122.076 7.256 122.748 7.048 123.564 7.048C124.124 7.048 124.608 7.148 125.016 7.348C125.424 7.548 125.732 7.82 125.94 8.164C126.148 8.508 126.252 8.896 126.252 9.328C126.252 9.824 126.12 10.248 125.856 10.6C125.592 10.952 125.276 11.188 124.908 11.308V11.356C125.38 11.5 125.748 11.764 126.012 12.148C126.276 12.524 126.408 13.008 126.408 13.6C126.408 14.072 126.3 14.492 126.084 14.86C125.868 15.228 125.548 15.52 125.124 15.736C124.7 15.944 124.192 16.048 123.6 16.048C122.736 16.048 122.024 15.828 121.464 15.388C120.912 14.94 120.616 14.3 120.576 13.468H121.896C121.928 13.892 122.092 14.24 122.388 14.512C122.684 14.776 123.084 14.908 123.588 14.908C124.076 14.908 124.452 14.776 124.716 14.512C124.98 14.24 125.112 13.892 125.112 13.468C125.112 12.908 124.932 12.512 124.572 12.28C124.22 12.04 123.676 11.92 122.94 11.92H122.628V10.792H122.952C123.6 10.784 124.092 10.676 124.428 10.468C124.772 10.26 124.944 9.932 124.944 9.484C124.944 9.1 124.82 8.796 124.572 8.572C124.324 8.34 123.972 8.224 123.516 8.224C123.068 8.224 122.72 8.34 122.472 8.572C122.224 8.796 122.076 9.076 122.028 9.412H120.696Z" fill="#404B52"/>
</svg>
