<svg width="16" height="16" viewBox="0 0 16 16" fill="none" xmlns="http://www.w3.org/2000/svg">
<path fill-rule="evenodd" clip-rule="evenodd" d="M10.9504 0.890461C10.0094 0.510762 9.00232 0.321644 7.98765 0.334071C5.97065 0.358775 4.04465 1.17736 2.62707 2.61241C1.20949 4.04746 0.414551 5.98335 0.414551 8.0005C0.414551 10.0176 1.20949 11.9535 2.62707 13.3886C4.04465 14.8236 5.97065 15.6422 7.98765 15.6669C9.00232 15.6793 10.0094 15.4902 10.9504 15.1105C11.8914 14.7308 12.7477 14.1681 13.4696 13.455C14.1916 12.7419 14.7647 11.8925 15.1559 10.9562C15.5471 10.0199 15.7486 9.01524 15.7486 8.0005C15.7486 6.98575 15.5471 5.9811 15.1559 5.04479C14.7647 4.10848 14.1916 3.25914 13.4696 2.54601C12.7477 1.83289 11.8914 1.27016 10.9504 0.890461ZM8.01215 2.33392C8.76213 2.32474 9.50648 2.46452 10.202 2.74517C10.8976 3.02582 11.5305 3.44176 12.0641 3.96886C12.5977 4.49596 13.0214 5.12374 13.3105 5.81581C13.5997 6.50787 13.7486 7.25045 13.7486 8.0005C13.7486 8.75054 13.5997 9.49312 13.3105 10.1852C13.0214 10.8772 12.5977 11.505 12.0641 12.0321C11.5305 12.5592 10.8976 12.9752 10.202 13.2558C9.50648 13.5365 8.76213 13.6763 8.01215 13.6671C6.5213 13.6488 5.09771 13.0438 4.04991 11.9831C3.00212 10.9224 2.41455 9.49146 2.41455 8.0005C2.41455 6.50954 3.00212 5.07864 4.04991 4.01794C5.09771 2.95723 6.5213 2.35218 8.01215 2.33392ZM9 4C9 3.44772 8.55229 3 8 3C7.44772 3 7 3.44772 7 4V8C7 8.37883 7.21406 8.72513 7.55292 8.89449L10.2199 10.2275C10.7139 10.4744 11.3146 10.2741 11.5615 9.78008C11.8084 9.28606 11.6081 8.68542 11.1141 8.43851L9 7.38186V4Z" fill="#1A0710" fill-opacity="0.65"/>
</svg>
