<svg width="16" height="14" viewBox="0 0 16 14" fill="none" xmlns="http://www.w3.org/2000/svg">
<path d="M15 13V11.637C15 11.033 14.803 10.447 14.44 9.96901C14.0817 9.49426 13.5748 9.15313 13 9.00001M10.667 1.08701C11.2412 1.23327 11.7503 1.56665 12.1139 2.0345C12.4776 2.50234 12.6749 3.07798 12.6749 3.67051C12.6749 4.26304 12.4776 4.83868 12.1139 5.30653C11.7503 5.77437 11.2412 6.10775 10.667 6.25401M11 13V11.667C11.0035 10.9684 10.7419 10.2944 10.268 9.78101C10.0427 9.53653 9.7694 9.34103 9.46524 9.20667C9.16109 9.07231 8.83254 9.00197 8.50003 9.00001H3.50003C2.83703 9.00001 2.20103 9.28101 1.73203 9.78101C1.25812 10.2944 0.99653 10.9684 1.00003 11.667V13H11ZM6.00003 6.33301C6.35455 6.33988 6.70687 6.27598 7.0364 6.14506C7.36593 6.01414 7.66604 5.81882 7.91918 5.57054C8.17232 5.32225 8.37342 5.02597 8.51069 4.69904C8.64797 4.37211 8.71868 4.02109 8.71868 3.66651C8.71868 3.31193 8.64797 2.96091 8.51069 2.63398C8.37342 2.30705 8.17232 2.01078 7.91918 1.76249C7.66604 1.5142 7.36593 1.31888 7.0364 1.18796C6.70687 1.05704 6.35455 0.993146 6.00003 1.00001C5.30178 1.01353 4.63668 1.30041 4.14765 1.799C3.65862 2.2976 3.38468 2.96812 3.38468 3.66651C3.38468 4.3649 3.65862 5.03543 4.14765 5.53402C4.63668 6.03261 5.30178 6.31949 6.00003 6.33301Z" stroke="#1A0710" stroke-opacity="0.65" stroke-width="2" stroke-linecap="round" stroke-linejoin="round"/>
</svg>
